<?xml version="1.0" encoding="UTF-8" standalone="no"?>
<!-- Created with Inkscape (http://www.inkscape.org/) -->

<svg
   version="1.1"
   id="svg1"
   width="853.33331"
   height="853.33331"
   viewBox="0 0 853.33331 853.33331"
   sodipodi:docname="profilePic.svg"
   inkscape:version="1.3 (0e150ed6c4, 2023-07-21)"
   xmlns:inkscape="http://www.inkscape.org/namespaces/inkscape"
   xmlns:sodipodi="http://sodipodi.sourceforge.net/DTD/sodipodi-0.dtd"
   xmlns="http://www.w3.org/2000/svg"
   xmlns:svg="http://www.w3.org/2000/svg">
  <defs
     id="defs1" />
  <sodipodi:namedview
     id="namedview1"
     pagecolor="#ffffff"
     bordercolor="#000000"
     borderopacity="0.25"
     inkscape:showpageshadow="2"
     inkscape:pageopacity="0.0"
     inkscape:pagecheckerboard="0"
     inkscape:deskcolor="#d1d1d1"
     inkscape:zoom="0.54027379"
     inkscape:cx="308.17708"
     inkscape:cy="414.6046"
     inkscape:window-width="1440"
     inkscape:window-height="890"
     inkscape:window-x="-6"
     inkscape:window-y="-6"
     inkscape:window-maximized="1"
     inkscape:current-layer="g1" />
  <g
     inkscape:groupmode="layer"
     inkscape:label="Image"
     id="g1">
    <path
       style="fill:#000000;stroke-width:1000;stroke:none;stroke-opacity:1;stroke-dasharray:none;stroke-linejoin:round;paint-order:markers stroke fill"
       d="m 301.86023,829.01343 c -37.34465,-12.09304 -75.90794,-47.29177 -96.43955,-88.02548 -23.75293,-47.1247 -27.22528,-120.30079 -9.26309,-195.20976 10.62013,-44.28975 36.25979,-107.56796 58.81099,-145.14435 22.25453,-37.08205 56.071,-75.68085 85.65485,-97.76813 24.78384,-18.5036 56.17776,-29.13038 86.05769,-29.13038 23.81602,0 39.22363,8.08163 48.75826,25.57479 7.2077,13.22389 7.69942,30.59061 1.27601,45.06671 -8.26522,18.62693 -35.83785,40.34707 -66.73338,52.56876 -22.82352,9.02855 -86.7274,21.77933 -90.45766,18.04907 -1.72777,-1.72778 2.1692,-8.57065 12.05153,-21.16176 l 8.34906,-10.63756 18.18038,-3.32047 c 23.46088,-4.28489 44.00349,-11.23055 58.84706,-19.89672 31.09454,-18.15408 41.14471,-34.90939 29.34832,-48.92858 -6.05185,-7.19222 -13.93603,-8.77907 -31.32122,-6.30399 -30.38629,4.32602 -48.94751,14.04131 -76.08093,39.82218 -31.76055,30.17736 -52.35054,58.43023 -72.37926,99.31626 -34.1189,69.64938 -51.06101,133.62533 -51.23823,193.48339 -0.0957,32.31899 1.87322,46.92743 9.44658,70.08959 12.32658,37.69918 44.56042,74.9207 77.49936,89.49116 22.15012,9.79806 52.35675,8.82024 73.36074,-2.37476 34.4942,-18.38523 78.73558,-75.82406 101.79846,-132.16553 3.60579,-8.80881 7.89941,-17.58502 9.54139,-19.50268 7.06638,-8.25295 20.01163,-5.48068 24.94256,5.34155 1.8619,4.08639 1.20254,7.32505 -4.2349,20.80114 -20.57772,50.99955 -48.80982,93.36863 -85.4468,128.23347 -27.35531,26.03213 -52.7091,36.56307 -87.63313,36.39928 -14.00416,-0.0657 -22.01755,-1.20959 -32.69509,-4.6672 z M 565.39932,618.36925 c -28.15766,-10.26192 -46.21631,-37.78449 -46.17509,-70.37386 0.0261,-20.66423 11.1251,-56.54524 26.64055,-86.12422 3.78677,-7.21917 7.43808,-13.12576 8.11402,-13.12576 0.67596,0 2.36041,2.55603 3.74323,5.68005 1.38282,3.12402 5.35038,9.26407 8.81677,13.64453 l 6.30253,7.96451 -7.02226,14.39661 c -15.63365,32.0511 -19.55565,62.18745 -10.46685,80.4263 9.52431,19.11279 25.58318,24.58949 43.5031,14.83624 24.29263,-13.2217 52.63418,-52.32716 65.4293,-90.27887 3.61981,-10.73675 5.15009,-39.04608 2.26656,-41.92961 -0.77992,-0.77991 -6.90527,1.10346 -13.6119,4.18527 -10.39805,4.77807 -14.6479,5.6074 -28.85684,5.63121 -14.94741,0.0251 -17.49606,-0.52285 -24.75469,-5.32176 -17.18669,-11.36267 -21.83641,-34.05773 -11.02346,-53.80482 18.27444,-33.3736 63.83604,-35.96063 89.64077,-5.08991 l 7.16984,8.57743 8.92816,-4.49671 c 46.03317,-23.18488 92.21999,-23.73071 92.21999,-1.08983 0,4.58168 -1.50767,7.74604 -5.20658,10.92769 -4.62454,3.97786 -6.56321,4.35181 -17.34235,3.34524 -14.73226,-1.37572 -30.08984,2.20278 -51.5468,12.01102 l -15.16806,6.9335 0.0691,29.5745 c 0.065,27.8324 -0.26228,30.48974 -5.55699,45.11199 -26.85349,74.16059 -84.37638,123.59966 -126.1121,108.38926 z m 79.31871,-190.33403 c 11.827,-5.59984 12.79974,-8.60561 4.73227,-14.62265 -11.14658,-8.31355 -27.45049,-6.31701 -33.61357,4.11625 -4.14027,7.00891 -4.14925,10.63139 -0.0366,14.74408 4.19471,4.19472 14.20725,2.72745 28.91785,-4.23768 z m -527.20931,53.30464 c -6.01484,-3.16183 -8.59956,-7.59684 -8.59956,-14.7556 0,-5.82908 2.20521,-8.89775 17.01487,-23.67695 18.99259,-18.95354 42.01122,-34.88319 74.19592,-51.34607 25.16739,-12.87344 25.42413,-12.6631 14.51281,11.89008 l -7.0923,15.95941 -16.17908,9.08049 c -20.46578,11.48641 -39.27902,26.96172 -50.7771,41.76795 -4.93048,6.34905 -9.91789,11.61066 -11.08317,11.69248 -1.16526,0.0818 -3.49917,0.41979 -5.18644,0.75102 -1.68729,0.33124 -4.74996,-0.28202 -6.80595,-1.36281 z m 5.98461,-191.14067 C 107.45074,279.08096 88.37405,266.32691 81.10069,261.85684 70.98106,255.63751 68.01367,252.81467 68.46106,249.83293 c 1.41407,-9.42392 5.93086,-8.3256 29.93224,7.27848 12.73551,8.27978 26.65568,17.60145 30.9337,20.71482 4.27802,3.11337 13.68481,9.19299 20.90398,13.51027 7.21917,4.31728 13.12576,8.74358 13.12576,9.83622 0,4.19068 -4.17096,9.50335 -7.36051,9.3753 -1.834,-0.0736 -16.46031,-9.23059 -32.5029,-20.34883 z m 61.08264,-44.17379 c -5.51951,-6.68444 -21.36848,-24.17513 -35.21991,-38.86823 -24.8679,-26.37896 -27.54653,-30.86519 -20.92002,-35.03735 2.25954,-1.42264 7.90376,1.16073 22.91146,10.48665 35.335,21.95746 41.19217,25.23443 43.05055,24.0859 1.00431,-0.6207 -5.6481,-15.57563 -14.78309,-33.23321 -13.52626,-26.14566 -16.17141,-32.63207 -14.251,-34.94602 1.29695,-1.56274 3.81538,-2.84135 5.5965,-2.84135 1.78112,0 19.23816,17.58107 38.79342,39.06904 34.27497,37.6625 35.43409,39.20264 32.19641,42.78024 -1.84724,2.04117 -4.45362,3.71122 -5.79198,3.71122 -1.33836,0 -8.20314,-6.23188 -15.25507,-13.84863 -7.05194,-7.61672 -12.82169,-12.62408 -12.82169,-11.12744 0,1.49664 3.5002,9.56543 7.77822,17.93065 8.81544,17.2377 9.95037,24.54643 3.81164,24.54643 -4.98715,0 -15.5608,-5.42558 -28.1174,-14.42765 -11.9253,-8.5495 -13.87778,-5.63146 -3.59697,5.3757 4.1506,4.44382 10.0083,10.82498 13.01713,14.18035 l 5.47059,6.10071 -4.40967,4.10822 c -2.42532,2.25953 -5.08782,4.10823 -5.91667,4.10823 -0.82884,0 -6.02295,-5.46906 -11.54245,-12.15346 z m 95.92773,-76.81001 c -4.37227,-9.35819 -10.676,-23.36263 -14.00825,-31.12102 -3.33224,-7.75839 -9.52559,-21.27538 -13.76298,-30.03776 -4.23738,-8.76239 -7.70436,-17.056977 -7.70436,-18.432411 0,-3.822702 18.38136,-12.289486 26.67302,-12.286088 11.86928,0.0044 20.13185,5.428638 26.25412,17.233899 9.06895,17.48717 5.72672,32.56545 -9.16611,41.35242 -5.24353,3.09376 -6.38288,4.71437 -5.07323,7.2161 2.98949,5.71067 13.94558,29.56747 15.71039,34.20931 2.02557,5.32764 -0.70409,8.88043 -6.82299,8.88043 -3.31512,0 -5.74933,-3.42307 -12.09961,-17.01488 z m 6.81358,-51.33704 c 5.27092,-11.03308 -6.75148,-28.951566 -17.59844,-26.229152 -2.6489,0.664834 -5.23706,2.310147 -5.7515,3.656272 -0.92747,2.42701 6.87303,21.51237 10.77466,26.36213 3.15742,3.92469 9.85404,1.90682 12.57528,-3.78925 z m 301.02194,52.13446 c -4.26815,-3.12094 -3.16958,-12.02203 3.2444,-26.28736 16.1323,-35.87992 25.62276,-61.584304 24.1525,-65.415756 -0.5387,-1.403829 -3.72286,-3.15498 -7.07591,-3.891437 -7.09311,-1.557911 -8.95121,-4.869875 -5.91499,-10.543105 2.93566,-5.485356 5.65727,-5.070115 29.24967,4.462641 15.63227,6.316392 20.55378,9.175094 20.99782,12.196804 1.01225,6.888355 -4.33241,9.456321 -13.43135,6.453396 -6.70986,-2.214462 -8.12177,-2.185745 -9.62147,0.195705 -0.96668,1.535057 -7.09725,16.354302 -13.6235,32.931652 -14.54971,36.95778 -21.39116,52.50301 -23.10652,52.50301 -0.71905,0 -2.91083,-1.17249 -4.87065,-2.60555 z M 368.12078,157.30972 c -2.55946,-1.74507 -2.93114,-104.760288 -0.39507,-109.498992 1.36307,-2.546894 3.64101,-3.571068 7.03623,-3.163498 5.34714,0.641878 6.03516,1.563118 11.3423,15.186852 1.87482,4.812777 5.86267,14.438333 8.86187,21.390129 9.41619,21.825639 25.0721,62.681459 25.0721,65.428409 0,1.69921 -2.35708,2.63106 -6.65513,2.63106 -5.88167,0 -6.91621,-0.791 -8.90133,-6.80593 -2.24036,-6.78839 -3.34291,-7.50689 -10.69504,-6.96958 -11.10937,0.81191 -12.63868,1.95107 -12.66939,9.43732 -0.0164,3.99028 -0.67267,8.20684 -1.45843,9.37015 -1.81373,2.68527 -9.1854,4.59816 -11.53811,2.99408 z m 20.51435,-35.44006 c 3.36812,-1.17412 6.12386,-2.41192 6.12386,-2.75069 0,-2.53509 -12.2996,-32.07703 -13.0448,-31.331822 -2.84907,2.849076 -2.66194,36.217312 0.20311,36.217312 0.3267,0 3.34972,-0.96065 6.71783,-2.1348 z m 90.54991,18.88885 -7.61607,-6.58063 0.0131,-18.21248 c 0.0212,-28.279452 2.8898,-54.264734 6.95281,-62.979741 4.59589,-9.858086 12.38677,-14.541691 24.18917,-14.541691 8.05393,0 10.08089,0.915506 16.71483,7.549454 6.28946,6.289426 7.54946,8.866683 7.54946,15.441681 0,8.898928 -1.98267,10.966424 -8.86102,9.240067 -3.63606,-0.91259 -4.75086,-2.481877 -4.75086,-6.687632 0,-10.139779 -11.7385,-15.437072 -20.12629,-9.082499 -3.01173,2.281695 -4.08759,8.113717 -6.60707,35.815366 -2.79258,30.704555 -2.77534,33.447295 0.23941,38.048355 5.95003,9.08089 20.79489,4.10528 22.91671,-7.68114 0.76011,-4.22236 6.82036,-5.93324 11.12569,-3.14091 4.46091,2.89323 0.85646,15.54275 -6.53509,22.9343 -5.72967,5.72965 -7.6499,6.45812 -17.02366,6.45812 -9.20928,0 -11.5432,-0.84473 -18.1816,-6.58062 z"
       id="path1" />
  </g>
</svg>
