<?xml version="1.0" encoding="UTF-8" standalone="no"?>
<svg
   class="app-icon"
   viewBox="0 0 64 64"
   version="1.1"
   id="svg2"
   sodipodi:docname="cashApp-icon.svg"
   inkscape:version="1.3 (0e150ed6c4, 2023-07-21)"
   xmlns:inkscape="http://www.inkscape.org/namespaces/inkscape"
   xmlns:sodipodi="http://sodipodi.sourceforge.net/DTD/sodipodi-0.dtd"
   xmlns="http://www.w3.org/2000/svg"
   xmlns:svg="http://www.w3.org/2000/svg">
  <defs
     id="defs2" />
  <sodipodi:namedview
     id="namedview2"
     pagecolor="#ffffff"
     bordercolor="#000000"
     borderopacity="0.25"
     inkscape:showpageshadow="2"
     inkscape:pageopacity="0.0"
     inkscape:pagecheckerboard="0"
     inkscape:deskcolor="#d1d1d1"
     inkscape:zoom="6.03125"
     inkscape:cx="12.683938"
     inkscape:cy="1.6580311"
     inkscape:window-width="1920"
     inkscape:window-height="1010"
     inkscape:window-x="2873"
     inkscape:window-y="-6"
     inkscape:window-maximized="1"
     inkscape:current-layer="g2" />
  <g
     fill-rule="nonzero"
     fill="#FFF"
     id="g2">
    <path
       d="M41.7 0c6.4 0 9.6 0 13.1 1.1a13.6 13.6 0 0 1 8.1 8.1C64 12.7 64 15.9 64 22.31v19.37c0 6.42 0 9.64-1.1 13.1a13.6 13.6 0 0 1-8.1 8.1C51.3 64 48.1 64 41.7 64H22.3c-6.42 0-9.64 0-13.1-1.1a13.6 13.6 0 0 1-8.1-8.1C0 51.3 0 48.1 0 41.69V22.3c0-6.42 0-9.64 1.1-13.1a13.6 13.6 0 0 1 8.1-8.1C12.7 0 15.9 0 22.3 0h19.4z"
       fill="#00D632"
       id="path1"
       style="fill:#ffffff" />
    <path
       d="m 47.171782,20.145213 c 0.722176,0.722175 1.920987,0.722175 2.599832,0 L 53.382491,16.3899 c 0.765505,-0.722175 0.722175,-2.02209 -0.08666,-2.80204 A 28.497039,28.497039 0 0 0 43.589793,8.0415534 L 44.73083,2.5530212 C 44.97637,1.3542101 44.080873,0.22761659 42.882061,0.22761659 H 35.891404 A 1.9065429,1.9065429 0 0 0 34.042635,1.7586283 L 33.03159,6.6405335 C 23.72997,7.1171691 15.843816,11.840197 15.843816,21.517346 c 0,8.377233 6.514021,11.973667 13.403574,14.443506 6.514022,2.484284 9.96602,3.408668 9.96602,6.903997 0,3.596433 -3.437554,5.705185 -8.521669,5.705185 -4.621922,0 -9.474941,-1.545455 -13.230252,-5.31521 a 1.8776559,1.8776559 0 0 0 -2.657606,0 l -3.899745,3.899747 a 1.964317,1.964317 0 0 0 0,2.773153 c 3.033135,2.989805 6.875108,5.156332 11.254379,6.355143 l -1.068819,5.156332 c -0.24554,1.19881 0.635514,2.31096 1.834325,2.325405 l 7.0051,0.05777 a 1.9065429,1.9065429 0 0 0 1.877657,-1.531012 l 1.011045,-4.896348 c 11.19083,-0.751062 18.008165,-6.91844 18.008165,-15.916745 0,-8.290573 -6.788448,-11.785902 -15.021247,-14.631273 -4.708584,-1.747664 -8.781653,-2.946475 -8.781653,-6.542909 0,-3.495328 3.798642,-4.881905 7.611728,-4.881905 4.853019,0 9.518271,2.007647 12.565851,4.751914 z"
       fill="#FFF"
       id="path2"
       style="fill:#000000;stroke-width:1.44435" />
  </g>
</svg>
