<?xml version="1.0" encoding="UTF-8" standalone="no"?>
<!-- Generator: Adobe Illustrator 17.0.0, SVG Export Plug-In . SVG Version: 6.00 Build 0)  -->

<svg
   version="1.1"
   id="Layer_1"
   x="0px"
   y="0px"
   width="24px"
   height="24px"
   viewBox="0 0 24 24"
   enable-background="new 0 0 24 24"
   xml:space="preserve"
   sodipodi:docname="instagram-icon.svg"
   inkscape:version="1.3 (0e150ed6c4, 2023-07-21)"
   xmlns:inkscape="http://www.inkscape.org/namespaces/inkscape"
   xmlns:sodipodi="http://sodipodi.sourceforge.net/DTD/sodipodi-0.dtd"
   xmlns="http://www.w3.org/2000/svg"
   xmlns:svg="http://www.w3.org/2000/svg"><defs
   id="defs1" /><sodipodi:namedview
   id="namedview1"
   pagecolor="#ffffff"
   bordercolor="#000000"
   borderopacity="0.25"
   inkscape:showpageshadow="2"
   inkscape:pageopacity="0.0"
   inkscape:pagecheckerboard="0"
   inkscape:deskcolor="#d1d1d1"
   inkscape:zoom="32.166667"
   inkscape:cx="11.984456"
   inkscape:cy="12"
   inkscape:window-width="1920"
   inkscape:window-height="1010"
   inkscape:window-x="2873"
   inkscape:window-y="-6"
   inkscape:window-maximized="1"
   inkscape:current-layer="Layer_1" />&#10;<path
   fill="#FFFFFF"
   d="M12,2.163c3.204,0,3.584,0.012,4.85,0.07c3.252,0.148,4.771,1.691,4.919,4.919  c0.058,1.265,0.069,1.645,0.069,4.849c0,3.205-0.012,3.584-0.069,4.849c-0.149,3.225-1.664,4.771-4.919,4.919  c-1.266,0.058-1.644,0.07-4.85,0.07c-3.204,0-3.584-0.012-4.849-0.07c-3.26-0.149-4.771-1.699-4.919-4.92  c-0.058-1.265-0.07-1.644-0.07-4.849c0-3.204,0.013-3.583,0.07-4.849C2.381,3.924,3.896,2.38,7.151,2.232  C8.417,2.175,8.796,2.163,12,2.163z M12,0C8.741,0,8.333,0.014,7.053,0.072c-4.358,0.2-6.78,2.618-6.98,6.98  C0.014,8.333,0,8.741,0,12s0.014,3.668,0.072,4.948c0.2,4.358,2.618,6.78,6.98,6.98C8.333,23.986,8.741,24,12,24  s3.668-0.014,4.948-0.072c4.354-0.2,6.782-2.618,6.979-6.98C23.986,15.668,24,15.259,24,12s-0.014-3.667-0.072-4.947  c-0.196-4.354-2.617-6.78-6.979-6.98C15.668,0.014,15.259,0,12,0z M12,5.838c-3.403,0-6.162,2.759-6.162,6.162  S8.597,18.163,12,18.163s6.162-2.759,6.162-6.163C18.162,8.597,15.403,5.838,12,5.838z M12,16c-2.209,0-4-1.79-4-4  c0-2.209,1.791-4,4-4s4,1.791,4,4C16,14.21,14.209,16,12,16z M18.406,4.155c-0.796,0-1.441,0.645-1.441,1.44s0.645,1.44,1.441,1.44  c0.795,0,1.439-0.645,1.439-1.44S19.201,4.155,18.406,4.155z"
   id="path1"
   style="fill:#000000" />&#10;</svg>
